<svg width="364" height="430" fill="none" xmlns="http://www.w3.org/2000/svg"><rect width="364" height="430" rx="20" fill="#F9F8FE"/><path fill="#F5FAFA" d="M38 116h326v314H38z"/><path fill="#DBE5FA" d="M107 55h235v15H107zM107 80h214v15H107zM107 105h190v15H107zM107 130h168v15H107zM107 175h235v15H107zM107 200h214v15H107zM107 225h190v15H107zM107 250h168v15H107z"/><rect x="22" y="55" width="63" height="90" rx="2" fill="#54BD95"/><rect x="22" y="180" width="63" height="90" rx="2" fill="#0F8CE9"/><circle cx="190" cy="70" r="25" transform="rotate(180 190 70)" fill="#54BD95"/><path d="M242.5 60.259 230 40l54 9.388L240 82l2.5-21.741z" fill="#54BD95" stroke="#fff" stroke-width="2"/><circle cx="67" cy="345" r="45" fill="#DBE5FA"/><circle cx="182" cy="345" r="45" fill="#0F8CE9"/><circle cx="297" cy="345" r="45" fill="#54BD95"/><circle cx="317" cy="345" r="4" fill="#fff"/><circle cx="302" cy="345" r="6" fill="#fff"/><circle cx="282" cy="345" r="9" fill="#fff"/></svg>