<svg width="364" height="430" fill="none" xmlns="http://www.w3.org/2000/svg"><g clip-path="url(#a)"><rect width="364" height="430" rx="20" fill="#F9F8FE"/><rect x="20" y="98" width="353" height="351" rx="10" fill="#E9EFFC"/><path fill="#F5FAFA" d="M38 116h326v314H38z"/><g filter="url(#b)"><g clip-path="url(#c)"><rect x="58" y="64" width="267" height="174" rx="10" fill="#54BD95"/><path d="M324.5 64.5 54.5 239h270V64.5z" fill="#5FC09B"/><rect x="78" y="84" width="42" height="42" rx="10" fill="#FEE900"/><rect x="89" y="95" width="20" height="20" rx="4" fill="#54BD95"/><path d="M104 111.667v-8.334M99 111.667V98.333M94 111.667v-5" stroke="#F9F8FE" stroke-width="1.667" stroke-linecap="round" stroke-linejoin="round"/><path d="M87.46 185h-7.063v-21.818h7.287c2.138 0 3.974.437 5.508 1.31 1.534.867 2.71 2.113 3.526 3.74.824 1.619 1.236 3.561 1.236 5.827 0 2.273-.416 4.226-1.247 5.859-.823 1.634-2.017 2.891-3.58 3.772-1.562.873-3.45 1.31-5.667 1.31zm-3.771-2.876h3.59c1.662 0 3.043-.313 4.144-.938 1.101-.632 1.925-1.545 2.472-2.738.547-1.2.82-2.663.82-4.389 0-1.712-.273-3.164-.82-4.357-.54-1.193-1.346-2.099-2.418-2.717-1.073-.618-2.405-.927-3.996-.927H83.69v16.066zm24.995 3.206c-1.534 0-2.872-.351-4.016-1.054-1.143-.704-2.031-1.687-2.663-2.951-.632-1.265-.948-2.742-.948-4.432 0-1.698.316-3.182.948-4.453.632-1.272 1.52-2.259 2.663-2.962 1.144-.703 2.482-1.055 4.016-1.055 1.535 0 2.873.352 4.017 1.055 1.143.703 2.031 1.69 2.663 2.962.632 1.271.948 2.755.948 4.453 0 1.69-.316 3.167-.948 4.432-.632 1.264-1.52 2.247-2.663 2.951-1.144.703-2.482 1.054-4.017 1.054zm.011-2.674c.994 0 1.818-.263 2.472-.788.653-.526 1.136-1.225 1.449-2.099.319-.873.479-1.836.479-2.887 0-1.044-.16-2.003-.479-2.876-.313-.881-.796-1.588-1.449-2.12-.654-.533-1.478-.799-2.472-.799-1.001 0-1.832.266-2.493.799-.653.532-1.14 1.239-1.459 2.12-.313.873-.469 1.832-.469 2.876 0 1.051.156 2.014.469 2.887.319.874.806 1.573 1.459 2.099.661.525 1.492.788 2.493.788zm18.066 2.674c-1.584 0-2.948-.358-4.091-1.076-1.137-.724-2.01-1.722-2.621-2.993-.611-1.272-.916-2.728-.916-4.368 0-1.662.312-3.129.937-4.4.625-1.279 1.506-2.276 2.642-2.994 1.137-.717 2.476-1.076 4.017-1.076 1.243 0 2.351.231 3.324.693.973.454 1.757 1.094 2.354 1.917.604.824.962 1.787 1.076 2.887h-3.1c-.171-.767-.561-1.427-1.172-1.981-.604-.554-1.413-.831-2.429-.831-.888 0-1.666.234-2.333.703-.661.462-1.176 1.122-1.545 1.982-.369.852-.554 1.86-.554 3.025 0 1.193.181 2.223.543 3.09.363.866.874 1.537 1.535 2.013.667.476 1.452.714 2.354.714.604 0 1.151-.11 1.641-.33a3.36 3.36 0 0 0 1.246-.97c.341-.419.579-.923.714-1.513h3.1c-.114 1.059-.458 2.003-1.033 2.834-.576.831-1.346 1.485-2.312 1.96-.959.476-2.085.714-3.377.714zm20.494-7.116v-9.578h3.196V185h-3.132v-2.834h-.17c-.377.874-.98 1.602-1.811 2.184-.824.575-1.851.863-3.079.863-1.051 0-1.982-.231-2.791-.692-.803-.469-1.435-1.162-1.897-2.078-.454-.916-.682-2.049-.682-3.398v-10.409h3.186v10.025c0 1.115.309 2.003.927 2.664.617.66 1.42.99 2.407.99.597 0 1.19-.149 1.779-.447a3.737 3.737 0 0 0 1.481-1.353c.398-.604.593-1.371.586-2.301zm7.476 6.786v-16.364h3.058v2.664h.202c.341-.902.899-1.605 1.673-2.11.774-.511 1.701-.767 2.78-.767 1.094 0 2.01.256 2.749.767.746.512 1.296 1.215 1.651 2.11h.171c.39-.874 1.012-1.57 1.864-2.088.852-.526 1.868-.789 3.047-.789 1.484 0 2.695.465 3.633 1.396.944.93 1.416 2.333 1.416 4.208V185h-3.185v-10.675c0-1.108-.302-1.91-.905-2.407-.604-.498-1.325-.746-2.163-.746-1.037 0-1.843.319-2.418.959-.576.632-.863 1.445-.863 2.439V185h-3.175v-10.877c0-.888-.277-1.602-.831-2.141-.554-.54-1.275-.81-2.163-.81a3.1 3.1 0 0 0-1.672.479c-.504.313-.913.75-1.225 1.311-.306.561-.458 1.211-.458 1.949V185h-3.186zm33.566.33c-1.612 0-3-.344-4.165-1.033-1.158-.696-2.053-1.673-2.685-2.93-.625-1.264-.937-2.745-.937-4.442 0-1.676.312-3.154.937-4.432.632-1.279 1.513-2.276 2.642-2.994 1.137-.717 2.465-1.076 3.985-1.076.923 0 1.818.153 2.684.458a6.492 6.492 0 0 1 2.333 1.439c.689.653 1.233 1.502 1.63 2.546.398 1.037.597 2.297.597 3.782v1.129H182.31v-2.386h9.887c0-.838-.171-1.581-.512-2.227a3.873 3.873 0 0 0-1.438-1.545c-.611-.376-1.328-.564-2.152-.564-.895 0-1.676.22-2.344.66a4.436 4.436 0 0 0-1.534 1.705 4.92 4.92 0 0 0-.533 2.269v1.864c0 1.094.192 2.024.576 2.791.39.768.934 1.353 1.63 1.758.696.398 1.509.597 2.439.597.604 0 1.154-.085 1.652-.256.497-.177.926-.44 1.289-.788.362-.348.639-.778.831-1.289l3.015.543a5.46 5.46 0 0 1-1.3 2.333c-.618.661-1.396 1.176-2.333 1.545-.931.362-1.992.543-3.186.543zm13.741-10.046V185h-3.186v-16.364h3.058v2.664h.202a4.674 4.674 0 0 1 1.769-2.088c.809-.526 1.829-.789 3.057-.789 1.115 0 2.092.235 2.93.703.838.462 1.488 1.151 1.949 2.067.462.916.693 2.049.693 3.399V185h-3.185v-10.025c0-1.186-.309-2.113-.927-2.78-.618-.675-1.467-1.012-2.546-1.012-.739 0-1.396.159-1.971.479-.568.32-1.019.788-1.353 1.406-.327.611-.49 1.35-.49 2.216zm22.382-6.648v2.557h-8.938v-2.557h8.938zm-6.541-3.92h3.186v15.479c0 .618.092 1.083.277 1.396.184.305.422.515.713.628.299.107.622.16.97.16.256 0 .479-.017.671-.053l.447-.085.576 2.631a5.379 5.379 0 0 1-.789.213 6.239 6.239 0 0 1-1.278.128 5.622 5.622 0 0 1-2.344-.447 4.033 4.033 0 0 1-1.758-1.449c-.447-.654-.671-1.474-.671-2.461v-16.14zM236.139 185v-21.818h13.53v2.834h-10.238v6.647h9.269v2.824h-9.269V185h-3.292zm17.323 0v-16.364h3.185V185h-3.185zm1.608-18.888c-.554 0-1.03-.185-1.427-.554-.391-.377-.586-.824-.586-1.343 0-.525.195-.973.586-1.342a2 2 0 0 1 1.427-.565c.554 0 1.027.188 1.417.565.398.369.597.817.597 1.342 0 .519-.199.966-.597 1.343-.39.369-.863.554-1.417.554zm9.048-2.93V185h-3.186v-21.818h3.186zm11.338 22.148c-1.613 0-3.001-.344-4.166-1.033-1.158-.696-2.052-1.673-2.685-2.93-.625-1.264-.937-2.745-.937-4.442 0-1.676.312-3.154.937-4.432.633-1.279 1.513-2.276 2.643-2.994 1.136-.717 2.464-1.076 3.984-1.076.923 0 1.818.153 2.685.458a6.51 6.51 0 0 1 2.333 1.439c.689.653 1.232 1.502 1.63 2.546.397 1.037.596 2.297.596 3.782v1.129h-13.008v-2.386h9.887c0-.838-.171-1.581-.512-2.227a3.873 3.873 0 0 0-1.438-1.545c-.611-.376-1.328-.564-2.152-.564-.895 0-1.676.22-2.344.66a4.444 4.444 0 0 0-1.534 1.705 4.92 4.92 0 0 0-.532 2.269v1.864c0 1.094.191 2.024.575 2.791.391.768.934 1.353 1.63 1.758.696.398 1.509.597 2.44.597.603 0 1.154-.085 1.651-.256.497-.177.927-.44 1.289-.788.362-.348.639-.778.831-1.289l3.015.543a5.46 5.46 0 0 1-1.3 2.333c-.618.661-1.396 1.176-2.333 1.545-.93.362-1.992.543-3.185.543zM78.984 212.443v-1.598l5.657-8.936h1.26v2.352h-.8l-4.046 6.405v.102h7.754v1.675h-9.825zM85.191 215v-3.043l.013-.728v-9.32h1.873V215H85.19zm10.167.179c-.802 0-1.522-.153-2.16-.46a3.92 3.92 0 0 1-1.522-1.279 3.374 3.374 0 0 1-.608-1.853h1.918c.047.562.296 1.025.748 1.387.452.362.993.543 1.624.543.502 0 .948-.115 1.335-.345.393-.234.7-.556.921-.965a2.85 2.85 0 0 0 .339-1.4c0-.533-.115-1.008-.345-1.426a2.554 2.554 0 0 0-.953-.984c-.4-.239-.86-.36-1.38-.364a3.7 3.7 0 0 0-1.196.204c-.4.137-.724.316-.971.537l-1.81-.268.736-6.597h7.197v1.694h-5.554l-.416 3.663h.077c.255-.248.594-.454 1.016-.62.426-.167.882-.25 1.368-.25.797 0 1.506.19 2.129.569a4.044 4.044 0 0 1 1.476 1.553c.362.652.541 1.402.537 2.25.004.848-.188 1.605-.575 2.27a4.167 4.167 0 0 1-1.598 1.572c-.678.379-1.456.569-2.333.569zm11.411 0a5.282 5.282 0 0 1-1.726-.32 4.042 4.042 0 0 1-1.534-1.022c-.46-.478-.829-1.119-1.106-1.924-.272-.806-.409-1.811-.409-3.017 0-1.142.113-2.157.339-3.043.23-.886.56-1.634.991-2.244.43-.613.95-1.08 1.559-1.399.61-.32 1.294-.48 2.052-.48.78 0 1.472.154 2.078.46a3.908 3.908 0 0 1 1.47 1.272 4.26 4.26 0 0 1 .722 1.848h-1.949a2.525 2.525 0 0 0-.787-1.336c-.392-.345-.903-.518-1.534-.518-.959 0-1.706.418-2.243 1.253-.533.835-.802 1.996-.806 3.483h.096a3.57 3.57 0 0 1 .831-.946 3.72 3.72 0 0 1 1.112-.607 3.913 3.913 0 0 1 1.304-.217c.759 0 1.445.185 2.058.556a4.05 4.05 0 0 1 1.477 1.521c.367.648.55 1.389.55 2.225 0 .835-.19 1.591-.569 2.269a4.185 4.185 0 0 1-1.585 1.611c-.682.392-1.479.584-2.391.575zm-.006-1.662c.502 0 .952-.124 1.348-.371.397-.247.71-.579.94-.997a2.85 2.85 0 0 0 .345-1.4c0-.503-.113-.961-.339-1.374a2.555 2.555 0 0 0-.92-.984 2.452 2.452 0 0 0-1.33-.365c-.379 0-.73.073-1.054.218-.32.144-.601.345-.844.6-.243.256-.435.55-.575.883a2.673 2.673 0 0 0-.205 1.041 2.777 2.777 0 0 0 1.278 2.372c.401.251.853.377 1.356.377zm20.681-7.472a4.004 4.004 0 0 0-.499-1.042 3.182 3.182 0 0 0-1.713-1.298 3.93 3.93 0 0 0-1.195-.172c-.737 0-1.402.189-1.994.569-.593.379-1.061.935-1.406 1.668-.341.729-.512 1.621-.512 2.678 0 1.061.173 1.958.518 2.691.345.733.818 1.289 1.419 1.669.601.379 1.285.568 2.052.568.711 0 1.331-.144 1.86-.434.533-.29.944-.699 1.234-1.228.294-.532.441-1.159.441-1.879l.511.096h-3.746v-1.63h5.146v1.489c0 1.1-.235 2.054-.703 2.864a4.787 4.787 0 0 1-1.931 1.867c-.818.439-1.755.658-2.812.658-1.185 0-2.225-.273-3.12-.818-.89-.546-1.585-1.319-2.083-2.321-.499-1.005-.748-2.198-.748-3.579 0-1.044.145-1.982.434-2.813.29-.831.697-1.536 1.221-2.115a5.341 5.341 0 0 1 1.86-1.336 5.825 5.825 0 0 1 2.346-.467 6.07 6.07 0 0 1 1.975.313c.614.209 1.16.505 1.637.889.481.383.88.839 1.195 1.368.315.524.529 1.106.639 1.745h-2.026zm4.623 8.955v-13.091h4.794c.929 0 1.698.153 2.308.46.609.303 1.065.714 1.368 1.234.302.516.453 1.097.453 1.745 0 .545-.1 1.006-.3 1.381-.2.37-.469.669-.805.895a3.56 3.56 0 0 1-1.1.485v.128c.435.022.859.162 1.272.422.418.256.763.62 1.036 1.093.272.473.409 1.048.409 1.726 0 .669-.158 1.27-.473 1.803-.311.528-.793.948-1.445 1.259-.652.307-1.485.46-2.499.46h-5.018zm1.975-1.694h2.851c.946 0 1.624-.183 2.033-.55.409-.366.613-.824.613-1.374 0-.413-.104-.793-.313-1.138a2.234 2.234 0 0 0-.895-.824c-.383-.205-.839-.307-1.368-.307h-2.921v4.193zm0-5.734h2.647c.443 0 .841-.085 1.195-.255.358-.171.641-.409.85-.716a1.9 1.9 0 0 0 .32-1.1c0-.541-.19-.995-.569-1.361-.38-.367-.961-.55-1.745-.55h-2.698v3.982zm16.541-5.663V215h-1.975v-13.091h1.975zm12.428 0V215h-1.982v-11.109h-.076l-3.132 2.045v-1.892l3.266-2.135h1.924zm8.099 13.308c-1.01-.004-1.873-.27-2.589-.799-.716-.528-1.264-1.297-1.643-2.307s-.569-2.227-.569-3.65c0-1.419.19-2.631.569-3.637.384-1.006.933-1.773 1.649-2.301.721-.529 1.581-.793 2.583-.793 1.001 0 1.86.266 2.576.799.716.529 1.263 1.296 1.642 2.301.384 1.002.576 2.212.576 3.631 0 1.427-.19 2.646-.569 3.656-.379 1.006-.927 1.775-1.643 2.308-.716.528-1.577.792-2.582.792zm0-1.706c.886 0 1.579-.433 2.077-1.298.503-.865.754-2.116.754-3.752 0-1.087-.115-2.005-.345-2.755-.226-.754-.552-1.325-.978-1.713a2.139 2.139 0 0 0-1.508-.588c-.882 0-1.575.434-2.078 1.304-.503.869-.756 2.12-.76 3.752 0 1.091.113 2.013.338 2.768.231.75.557 1.319.978 1.706.422.384.929.576 1.522.576zm11.382 1.668c-.801 0-1.521-.153-2.16-.46a3.917 3.917 0 0 1-1.521-1.279 3.372 3.372 0 0 1-.608-1.853h1.918c.047.562.296 1.025.748 1.387.451.362.993.543 1.623.543.503 0 .949-.115 1.336-.345.392-.234.699-.556.921-.965.226-.409.339-.876.339-1.4 0-.533-.116-1.008-.346-1.426a2.55 2.55 0 0 0-.952-.984 2.686 2.686 0 0 0-1.381-.364c-.396 0-.794.068-1.195.204-.401.137-.724.316-.972.537l-1.809-.268.736-6.597h7.197v1.694h-5.555l-.415 3.663h.076c.256-.248.595-.454 1.017-.62.426-.167.882-.25 1.368-.25.797 0 1.506.19 2.128.569a4.04 4.04 0 0 1 1.477 1.553c.362.652.541 1.402.537 2.25.004.848-.188 1.605-.576 2.27a4.162 4.162 0 0 1-1.598 1.572c-.677.379-1.455.569-2.333.569zm11.412 0a5.282 5.282 0 0 1-1.726-.32 4.034 4.034 0 0 1-1.534-1.022c-.46-.478-.829-1.119-1.106-1.924-.273-.806-.409-1.811-.409-3.017 0-1.142.113-2.157.339-3.043.23-.886.56-1.634.99-2.244.431-.613.951-1.08 1.56-1.399.609-.32 1.293-.48 2.052-.48.78 0 1.472.154 2.077.46a3.911 3.911 0 0 1 1.471 1.272 4.26 4.26 0 0 1 .722 1.848h-1.95a2.517 2.517 0 0 0-.786-1.336c-.392-.345-.903-.518-1.534-.518-.959 0-1.707.418-2.244 1.253-.532.835-.801 1.996-.805 3.483h.096a3.57 3.57 0 0 1 .831-.946 3.72 3.72 0 0 1 1.112-.607 3.909 3.909 0 0 1 1.304-.217c.759 0 1.445.185 2.058.556.618.366 1.11.874 1.477 1.521.366.648.55 1.389.55 2.225 0 .835-.19 1.591-.569 2.269a4.18 4.18 0 0 1-1.586 1.611c-.681.392-1.478.584-2.39.575zm-.007-1.662c.503 0 .953-.124 1.349-.371s.71-.579.94-.997a2.85 2.85 0 0 0 .345-1.4c0-.503-.113-.961-.339-1.374a2.555 2.555 0 0 0-.92-.984 2.452 2.452 0 0 0-1.33-.365 2.554 2.554 0 0 0-1.898.818 2.93 2.93 0 0 0-.576.883 2.69 2.69 0 0 0-.204 1.041 2.777 2.777 0 0 0 1.278 2.372c.401.251.853.377 1.355.377zm13.798-11.608V215h-1.976v-13.091h1.976zm7.306 3.273v1.534h-5.363v-1.534h5.363zm-3.925-2.352h1.911v9.287c0 .371.056.65.166.838a.873.873 0 0 0 .429.377c.179.064.373.096.581.096.154 0 .288-.011.403-.032l.269-.052.345 1.579a3.114 3.114 0 0 1-.473.128 3.723 3.723 0 0 1-.767.077 3.37 3.37 0 0 1-1.407-.269 2.408 2.408 0 0 1-1.054-.869c-.269-.392-.403-.884-.403-1.477v-9.683zm10.165 12.368c-.967 0-1.8-.207-2.499-.62a4.194 4.194 0 0 1-1.611-1.758c-.375-.758-.563-1.647-.563-2.665 0-1.006.188-1.892.563-2.659.379-.767.908-1.366 1.585-1.796.682-.431 1.479-.646 2.391-.646.554 0 1.091.092 1.611.275a3.9 3.9 0 0 1 1.399.863c.414.392.74.901.978 1.527.239.623.358 1.379.358 2.27v.677h-7.804v-1.432h5.931a2.83 2.83 0 0 0-.306-1.336 2.32 2.32 0 0 0-.863-.926c-.367-.226-.797-.339-1.292-.339-.536 0-1.005.132-1.406.396-.396.26-.703.601-.92 1.023a2.95 2.95 0 0 0-.32 1.361v1.119c0 .656.115 1.214.345 1.675.235.46.561.811.978 1.054.418.239.906.358 1.464.358.362 0 .693-.051.991-.153a2.05 2.05 0 0 0 1.272-1.247l1.809.326c-.145.533-.405 1-.78 1.4a3.763 3.763 0 0 1-1.4.927c-.558.217-1.195.326-1.911.326zm6.333-.198v-9.818h1.834v1.598h.122a2.539 2.539 0 0 1 1.003-1.266c.465-.307 1.021-.46 1.669-.46.656 0 1.206.153 1.649.46.447.307.778.729.991 1.266h.102a2.762 2.762 0 0 1 1.118-1.253c.512-.315 1.121-.473 1.829-.473.89 0 1.617.279 2.179.837.567.559.85 1.4.85 2.525V215h-1.911v-6.405c0-.665-.181-1.146-.543-1.444-.362-.299-.795-.448-1.298-.448-.622 0-1.106.192-1.451.575-.345.38-.517.868-.517 1.464V215h-1.905v-6.526c0-.533-.166-.961-.499-1.285-.332-.324-.765-.486-1.297-.486-.363 0-.697.096-1.004.288a2.096 2.096 0 0 0-.735.786 2.414 2.414 0 0 0-.275 1.17V215h-1.911zm23.265-7.421-1.732.307a2.029 2.029 0 0 0-.345-.633 1.702 1.702 0 0 0-.627-.492c-.264-.128-.594-.192-.99-.192-.541 0-.993.121-1.355.364-.363.239-.544.548-.544.927 0 .328.122.592.365.793.243.2.635.364 1.176.492l1.559.358c.904.209 1.577.53 2.02.965.443.435.665.999.665 1.694 0 .588-.17 1.112-.511 1.572-.337.456-.808.814-1.413 1.074-.601.26-1.298.39-2.09.39-1.1 0-1.997-.234-2.691-.703-.695-.473-1.121-1.144-1.279-2.013l1.848-.282c.115.482.351.846.709 1.093.358.243.825.365 1.4.365.627 0 1.127-.13 1.502-.39.375-.264.563-.586.563-.965 0-.307-.115-.565-.345-.774-.226-.209-.574-.366-1.042-.473l-1.662-.364c-.916-.209-1.594-.541-2.033-.997-.435-.456-.652-1.034-.652-1.733 0-.579.162-1.086.486-1.521.324-.435.771-.773 1.342-1.016.571-.247 1.225-.371 1.963-.371 1.061 0 1.896.23 2.505.69.61.456 1.012 1.068 1.208 1.835z" fill="#fff"/></g></g><g filter="url(#d)"><rect x="276" y="33" width="66" height="66" rx="10" fill="#fff"/></g><path fill-rule="evenodd" clip-rule="evenodd" d="M319.586 66c.27-.885.414-1.82.414-2.786C320 57.574 315.075 53 309 53s-11 4.573-11 10.214c0 .966.144 1.9.414 2.787A6.5 6.5 0 0 0 298.5 79h21a6.5 6.5 0 0 0 .086-13z" fill="#54BD95"/><rect x="345" y="115" width="28" height="144" rx="14" fill="#0F8CE9"/><path d="M139 293.5h210.5M139 332h210.5M139 370.5h210.5" stroke="#E7ECF3" stroke-width="2" stroke-dasharray="12 12"/><rect x="94.5" y="268.5" width="265" height="133" rx="8.5" stroke="#E7ECF3"/><rect x="146" y="321" width="18" height="64" rx="9" fill="#54BD95"/><rect x="191" y="289" width="18" height="64" rx="9" fill="#54BD95"/><rect x="236" y="303" width="18" height="64" rx="9" fill="#54BD95"/><rect x="281" y="321" width="18" height="64" rx="9" fill="#54BD95"/><rect x="326" y="294" width="18" height="64" rx="9" fill="#54BD95"/></g><defs><clipPath id="a"><rect width="364" height="430" rx="20" fill="#fff"/></clipPath><clipPath id="c"><rect x="58" y="64" width="267" height="174" rx="10" fill="#fff"/></clipPath><filter id="b" x="14" y="34" width="355" height="262" filterUnits="userSpaceOnUse" color-interpolation-filters="sRGB"><feFlood flood-opacity="0" result="BackgroundImageFix"/><feColorMatrix in="SourceAlpha" values="0 0 0 0 0 0 0 0 0 0 0 0 0 0 0 0 0 0 127 0" result="hardAlpha"/><feOffset dy="14"/><feGaussianBlur stdDeviation="22"/><feComposite in2="hardAlpha" operator="out"/><feColorMatrix values="0 0 0 0 0 0 0 0 0 0 0 0 0 0 0 0 0 0 0.15 0"/><feBlend in2="BackgroundImageFix" result="effect1_dropShadow_1_460"/><feBlend in="SourceGraphic" in2="effect1_dropShadow_1_460" result="shape"/></filter><filter id="d" x="267" y="28" width="84" height="84" filterUnits="userSpaceOnUse" color-interpolation-filters="sRGB"><feFlood flood-opacity="0" result="BackgroundImageFix"/><feColorMatrix in="SourceAlpha" values="0 0 0 0 0 0 0 0 0 0 0 0 0 0 0 0 0 0 127 0" result="hardAlpha"/><feOffset dy="4"/><feGaussianBlur stdDeviation="4.5"/><feComposite in2="hardAlpha" operator="out"/><feColorMatrix values="0 0 0 0 0 0 0 0 0 0 0 0 0 0 0 0 0 0 0.05 0"/><feBlend in2="BackgroundImageFix" result="effect1_dropShadow_1_460"/><feBlend in="SourceGraphic" in2="effect1_dropShadow_1_460" result="shape"/></filter></defs></svg>