<svg width="364" height="430" fill="none" xmlns="http://www.w3.org/2000/svg"><g clip-path="url(#a)"><rect width="364" height="430" rx="20" fill="#F9F8FE"/><rect x="20" y="98" width="353" height="351" rx="10" fill="#E9EFFC"/><path fill="#F5FAFA" d="M38 116h326v314H38z"/><rect x="67.5" y="164.5" width="312" height="105" rx="9.5" stroke="#EFF2F7"/><g filter="url(#b)"><rect x="85" y="182" width="70" height="70" rx="10" fill="#0F8CE9"/></g><path fill-rule="evenodd" clip-rule="evenodd" d="M130.586 217.001c.27-.886.414-1.821.414-2.787 0-5.641-4.925-10.214-11-10.214s-11 4.573-11 10.214c0 .966.144 1.901.414 2.787A6.5 6.5 0 0 0 109.5 230h21a6.5 6.5 0 0 0 .086-12.999z" fill="#DBE5FA"/><rect x="185" y="239" width="190" height="10" rx="5" fill="#DBE5FA"/><rect x="185" y="239" width="92" height="10" rx="5" fill="#54BD95"/><rect x="185" y="217" width="104" height="6" rx="3" fill="#DBE5FA"/><rect x="185" y="185" width="190" height="16" rx="8" fill="#DBE5FA"/><rect x="27.5" y="296.5" width="347" height="105" rx="9.5" fill="#fff" stroke="#EFF2F7"/><g filter="url(#c)"><rect x="45" y="314" width="70" height="70" rx="10" fill="#fff"/></g><rect x="145" y="371" width="228" height="10" rx="5" fill="#DBE5FA"/><rect x="145" y="371" width="163.2" height="10" rx="5" fill="#54BD95"/><rect x="145" y="349" width="124.8" height="6" rx="3" fill="#DBE5FA"/><rect x="145" y="317" width="228" height="16" rx="8" fill="#DBE5FA"/><g clip-path="url(#d)" fill="#54BD95"><path d="M86.95 345.553h-13.9a1.428 1.428 0 1 0 0 2.856v.952a1.429 1.429 0 1 0 2.856 0v-.952h8.188v.952a1.429 1.429 0 1 0 2.857 0v-.952a1.428 1.428 0 1 0 0-2.856zM80 338.888a2.856 2.856 0 0 0-2.856 2.856h5.712A2.857 2.857 0 0 0 80 338.888z"/><path d="M80 329c-11.046 0-20 8.954-20 20s8.954 20 20 20 20-8.954 20-20-8.954-20-20-20zm12.188 28.55a2.856 2.856 0 0 1-2.857 2.856H70.67a2.856 2.856 0 0 1-2.856-2.856v-12.949a2.857 2.857 0 0 1 2.856-2.857h3.618a5.713 5.713 0 0 1 11.426 0h3.618a2.857 2.857 0 0 1 2.856 2.857v12.949z"/></g><mask id="e" fill="#fff"><path d="M275 116a95.001 95.001 0 0 0-95-95 94.999 94.999 0 0 0-95 95h34.013A60.994 60.994 0 0 1 180 55.013a60.992 60.992 0 0 1 56.345 37.648A61.004 61.004 0 0 1 240.987 116H275z"/></mask><path d="M275 116a95.001 95.001 0 0 0-95-95 94.999 94.999 0 0 0-95 95h34.013A60.994 60.994 0 0 1 180 55.013a60.992 60.992 0 0 1 56.345 37.648A61.004 61.004 0 0 1 240.987 116H275z" stroke="#52459F" stroke-width="68" mask="url(#e)"/><mask id="f" fill="#fff"><path d="M275 116a95 95 0 0 0-190 0h34.03a60.97 60.97 0 0 1 121.94 0H275z"/></mask><path d="M275 116a95 95 0 0 0-190 0h34.03a60.97 60.97 0 0 1 121.94 0H275z" stroke="#0F8CE9" stroke-width="68" mask="url(#f)"/><mask id="g" fill="#fff"><path d="M275 116a95.002 95.002 0 0 0-63.132-89.495l-11.416 32.058A60.968 60.968 0 0 1 240.97 116H275z"/></mask><path d="M275 116a95.002 95.002 0 0 0-63.132-89.495l-11.416 32.058A60.968 60.968 0 0 1 240.97 116H275z" stroke="#54BD95" stroke-width="68" mask="url(#g)"/><mask id="h" fill="#fff"><path d="M275 116a94.997 94.997 0 0 0-58.451-87.688l-13.092 31.41A60.972 60.972 0 0 1 240.97 116H275z"/></mask><path d="M275 116a94.997 94.997 0 0 0-58.451-87.688l-13.092 31.41A60.972 60.972 0 0 1 240.97 116H275z" stroke="#FEE900" stroke-width="68" mask="url(#h)"/><path d="M93.534 140.139a4.091 4.091 0 0 1-1.342-.248 3.149 3.149 0 0 1-1.193-.796c-.358-.371-.645-.87-.86-1.496-.213-.627-.319-1.409-.319-2.347 0-.888.088-1.677.264-2.366.179-.69.436-1.271.77-1.745.335-.478.74-.841 1.213-1.089a3.378 3.378 0 0 1 1.596-.373c.607 0 1.145.119 1.616.358.47.239.852.568 1.144.989.295.421.482.9.561 1.437h-1.516a1.958 1.958 0 0 0-.612-1.039c-.304-.268-.702-.403-1.193-.403-.745 0-1.327.325-1.745.975-.414.649-.623 1.553-.626 2.709h.075a2.78 2.78 0 0 1 .646-.736 3.036 3.036 0 0 1 1.88-.641c.589 0 1.123.144 1.6.433.48.285.863.679 1.148 1.183.285.504.428 1.08.428 1.73a3.55 3.55 0 0 1-.443 1.765 3.242 3.242 0 0 1-1.233 1.253c-.53.305-1.15.454-1.859.447zm-.005-1.292c.391 0 .74-.097 1.05-.289.307-.192.551-.451.73-.775a2.22 2.22 0 0 0 .268-1.089c0-.391-.087-.748-.263-1.069a1.994 1.994 0 0 0-.716-.766 1.906 1.906 0 0 0-1.034-.283 1.98 1.98 0 0 0-1.477.636 2.28 2.28 0 0 0-.447.686c-.106.256-.16.526-.16.811a2.159 2.159 0 0 0 .994 1.844c.313.196.664.294 1.055.294zm8.896 1.322c-.786-.003-1.457-.21-2.014-.621-.557-.411-.983-1.01-1.278-1.795-.295-.786-.442-1.732-.442-2.839 0-1.104.147-2.047.442-2.829.299-.782.726-1.379 1.283-1.79.56-.411 1.23-.616 2.009-.616.778 0 1.446.207 2.003.621.557.411.983 1.008 1.278 1.79.298.779.447 1.72.447 2.824 0 1.11-.147 2.058-.442 2.844-.295.782-.721 1.38-1.278 1.795-.557.411-1.226.616-2.008.616zm0-1.327c.689 0 1.228-.337 1.615-1.01.391-.672.587-1.645.587-2.918 0-.845-.09-1.559-.269-2.143-.175-.586-.429-1.03-.76-1.332a1.663 1.663 0 0 0-1.173-.457c-.687 0-1.225.338-1.616 1.014-.391.676-.589 1.649-.592 2.918 0 .849.088 1.566.264 2.153.179.583.432 1.026.76 1.327a1.7 1.7 0 0 0 1.184.448zm10.807-.751v-.537c0-.384.079-.736.238-1.054a1.92 1.92 0 0 1 .706-.771c.312-.195.688-.293 1.129-.293.45 0 .828.096 1.133.288.305.193.535.45.691.771.159.322.239.675.239 1.059v.537c0 .384-.08.737-.239 1.059a1.902 1.902 0 0 1-.701.77c-.305.193-.679.289-1.123.289-.448 0-.826-.096-1.134-.289a1.909 1.909 0 0 1-.701-.77 2.358 2.358 0 0 1-.238-1.059zm1.158-.537v.537c0 .285.068.543.204.775.136.232.373.348.711.348.334 0 .568-.116.701-.348a1.54 1.54 0 0 0 .199-.775v-.537a1.57 1.57 0 0 0-.194-.776c-.126-.232-.362-.348-.706-.348-.332 0-.567.116-.706.348a1.482 1.482 0 0 0-.209.776zm-6.279-5.29v-.537c0-.384.079-.737.238-1.059.163-.321.398-.578.706-.77.312-.193.688-.289 1.129-.289.451 0 .829.096 1.133.289.305.192.536.449.692.77.155.322.233.675.233 1.059v.537c0 .385-.079.738-.238 1.059a1.885 1.885 0 0 1-.696.771c-.305.192-.68.288-1.124.288-.451 0-.83-.096-1.139-.288a1.942 1.942 0 0 1-.696-.771 2.352 2.352 0 0 1-.238-1.059zm1.163-.537v.537c0 .285.066.544.199.776.136.232.373.348.711.348.331 0 .563-.116.696-.348.136-.232.204-.491.204-.776v-.537c0-.285-.065-.543-.194-.775-.129-.232-.365-.348-.706-.348-.331 0-.567.116-.706.348-.136.232-.204.49-.204.775zm-.691 8.273 7-10.182h1.188l-7 10.182h-1.188zM245.766 138.011v-1.243l4.399-6.95h.98v1.83h-.622l-3.147 4.981v.08h6.031v1.302h-7.641zm4.827 1.989v-2.366l.01-.567v-7.249h1.457V140h-1.467zm8.091.169c-.785-.003-1.456-.21-2.013-.621-.557-.411-.983-1.01-1.278-1.795-.295-.786-.442-1.732-.442-2.839 0-1.104.147-2.047.442-2.829.298-.782.726-1.379 1.283-1.79.56-.411 1.229-.616 2.008-.616.779 0 1.447.207 2.004.621.557.411.983 1.008 1.278 1.79.298.779.447 1.72.447 2.824 0 1.11-.147 2.058-.442 2.844-.295.782-.721 1.38-1.278 1.795-.557.411-1.226.616-2.009.616zm0-1.327c.69 0 1.228-.337 1.616-1.01.391-.672.587-1.645.587-2.918 0-.845-.09-1.559-.269-2.143-.175-.586-.429-1.03-.76-1.332a1.667 1.667 0 0 0-1.174-.457c-.686 0-1.224.338-1.615 1.014-.392.676-.589 1.649-.592 2.918 0 .849.088 1.566.263 2.153.179.583.433 1.026.761 1.327a1.7 1.7 0 0 0 1.183.448zm10.807-.751v-.537c0-.384.08-.736.239-1.054.162-.321.398-.578.706-.771.311-.195.688-.293 1.128-.293.451 0 .829.096 1.134.288.305.193.535.45.691.771.159.322.239.675.239 1.059v.537c0 .384-.08.737-.239 1.059a1.909 1.909 0 0 1-.701.77c-.305.193-.679.289-1.124.289-.447 0-.825-.096-1.133-.289a1.909 1.909 0 0 1-.701-.77 2.36 2.36 0 0 1-.239-1.059zm1.159-.537v.537c0 .285.068.543.204.775.135.232.372.348.71.348.335 0 .569-.116.701-.348a1.53 1.53 0 0 0 .199-.775v-.537a1.56 1.56 0 0 0-.194-.776c-.126-.232-.361-.348-.706-.348-.331 0-.566.116-.706.348a1.481 1.481 0 0 0-.208.776zm-6.279-5.29v-.537c0-.384.079-.737.238-1.059.163-.321.398-.578.706-.77.312-.193.688-.289 1.129-.289.45 0 .828.096 1.133.289.305.192.536.449.691.77.156.322.234.675.234 1.059v.537c0 .385-.08.738-.239 1.059a1.87 1.87 0 0 1-.696.771c-.305.192-.679.288-1.123.288-.451 0-.831-.096-1.139-.288a1.927 1.927 0 0 1-.696-.771 2.352 2.352 0 0 1-.238-1.059zm1.163-.537v.537c0 .285.066.544.199.776.136.232.373.348.711.348.331 0 .563-.116.696-.348.136-.232.204-.491.204-.776v-.537c0-.285-.065-.543-.194-.775-.13-.232-.365-.348-.706-.348-.332 0-.567.116-.706.348-.136.232-.204.49-.204.775zm-.691 8.273 7-10.182h1.188l-7 10.182h-1.188z" fill="#000"/><circle cx="180" cy="116" r="39" fill="#FEFEFD"/><circle cx="180" cy="116" r="30" fill="#E6F9FD"/><path d="M172.48 128.757c5.053 3.14 11.405 1.44 14.219-3.805.981-1.829 1.355-3.925 1.342-5.846l-.216-14.392c.001-.931-.564-1.748-1.273-2.188-.71-.441-1.613-.537-2.397-.093l-11.685 6.988c-1.559.945-3.036 2.314-4.034 4.174-2.814 5.245-1.009 12.022 4.044 15.162zm6.588-12.281c1.835 1.141 2.499 3.628 1.478 5.533-1.022 1.905-3.356 2.529-5.191 1.389s-2.499-3.628-1.477-5.533c1.025-1.911 3.355-2.529 5.19-1.389z" fill="#0F8CE9"/></g><defs><clipPath id="a"><rect width="364" height="430" rx="20" fill="#fff"/></clipPath><clipPath id="d"><path fill="#fff" transform="translate(60 329)" d="M0 0h40v40H0z"/></clipPath><filter id="b" x="76" y="177" width="88" height="88" filterUnits="userSpaceOnUse" color-interpolation-filters="sRGB"><feFlood flood-opacity="0" result="BackgroundImageFix"/><feColorMatrix in="SourceAlpha" values="0 0 0 0 0 0 0 0 0 0 0 0 0 0 0 0 0 0 127 0" result="hardAlpha"/><feOffset dy="4"/><feGaussianBlur stdDeviation="4.5"/><feComposite in2="hardAlpha" operator="out"/><feColorMatrix values="0 0 0 0 0 0 0 0 0 0 0 0 0 0 0 0 0 0 0.05 0"/><feBlend in2="BackgroundImageFix" result="effect1_dropShadow_1_498"/><feBlend in="SourceGraphic" in2="effect1_dropShadow_1_498" result="shape"/></filter><filter id="c" x="36" y="309" width="88" height="88" filterUnits="userSpaceOnUse" color-interpolation-filters="sRGB"><feFlood flood-opacity="0" result="BackgroundImageFix"/><feColorMatrix in="SourceAlpha" values="0 0 0 0 0 0 0 0 0 0 0 0 0 0 0 0 0 0 127 0" result="hardAlpha"/><feOffset dy="4"/><feGaussianBlur stdDeviation="4.5"/><feComposite in2="hardAlpha" operator="out"/><feColorMatrix values="0 0 0 0 0 0 0 0 0 0 0 0 0 0 0 0 0 0 0.05 0"/><feBlend in2="BackgroundImageFix" result="effect1_dropShadow_1_498"/><feBlend in="SourceGraphic" in2="effect1_dropShadow_1_498" result="shape"/></filter></defs></svg>